<svg xmlns="http://www.w3.org/2000/svg" width="32.034" height="24.698" viewBox="0 0 32.034 24.698">
  <path id="_7424569_book_library_knowledge_magazine_literature_icon" data-name="7424569_book_library_knowledge_magazine_literature_icon" d="M101.813,117.028l-1.787-.677V114a.539.539,0,0,0-.406-.522c-8.506-2.179-12.275.551-13.476,1.781-1.2-1.231-4.968-3.963-13.476-1.781a.539.539,0,0,0-.406.522v2.348l-1.787.677a.54.54,0,0,0-.345.5V136.82a.54.54,0,0,0,.282.474.55.55,0,0,0,.258.065.544.544,0,0,0,.293-.086c6.481-4.2,14.974-2.24,15.058-2.222h.022l.036,0a.223.223,0,0,0,.134,0l.036,0h.022c.086-.02,8.578-1.982,15.058,2.222a.544.544,0,0,0,.293.086.55.55,0,0,0,.258-.065.54.54,0,0,0,.282-.474V117.533A.54.54,0,0,0,101.813,117.028Zm-2.866-2.6v17.324c-7.053-1.646-10.689.172-12.263,1.453V116.274C87.227,115.607,90.4,112.361,98.946,114.425Zm-25.605,0c8.491-2.05,11.708,1.187,12.263,1.852V133.2a10.875,10.875,0,0,0-7.054-2.106,23.061,23.061,0,0,0-5.21.653Zm-2.135,21.441V117.9l1.055-.4v14.932a.539.539,0,0,0,.674.522c6.3-1.616,9.779-.363,11.459.725C81.57,133.326,76.063,133.119,71.206,135.867Zm29.875,0c-4.875-2.757-10.4-2.538-13.214-2.179,1.654-1.093,5.116-2.362,11.486-.729a.534.534,0,0,0,.465-.1.54.54,0,0,0,.208-.426V117.5l1.055.4Z" transform="translate(-70.13 -112.662)" fill="#fff"/>
</svg>
