<svg width="85" height="74" viewBox="0 0 85 74" fill="none" xmlns="http://www.w3.org/2000/svg">
<path opacity="0.21" fill-rule="evenodd" clip-rule="evenodd" d="M0 37V51C0 63.7025 10.2975 74 23 74H42.3766H61.7533C74.4558 74 84.7533 63.7025 84.7533 51V37V23C84.7533 10.2975 74.4558 0 61.7533 0H42.3766H23C10.2975 0 0 10.2975 0 23V37Z" fill="#3ED886"/>
<path d="M30.6893 48.4H59V21.8C59 20.7922 58.602 19.8256 57.8935 19.113C57.185 18.4004 56.2241 18 55.2222 18H30.6667C28.3887 18 25 19.5181 25 23.7V50.3C25 54.4819 28.3887 56 30.6667 56H59V52.2H30.6893C29.8167 52.1772 28.7778 51.8295 28.7778 50.3C28.7778 48.7705 29.8167 48.4228 30.6893 48.4ZM34.4444 25.6H51.4444V29.4H34.4444V25.6Z" fill="#149365"/>
</svg>
