<svg width="27" height="27" viewBox="0 0 27 27" fill="none" xmlns="http://www.w3.org/2000/svg">
<path d="M0 13.5C0 16.17 0.791761 18.7801 2.27516 21.0002C3.75856 23.2203 5.86697 24.9506 8.33377 25.9724C10.8006 26.9942 13.515 27.2615 16.1337 26.7406C18.7525 26.2197 21.1579 24.9339 23.0459 23.0459C24.9339 21.1579 26.2197 18.7525 26.7406 16.1337C27.2615 13.515 26.9942 10.8006 25.9724 8.33377C24.9506 5.86697 23.2203 3.75856 21.0002 2.27516C18.7801 0.791761 16.17 0 13.5 0C9.91958 0 6.4858 1.42232 3.95406 3.95406C1.42232 6.4858 0 9.91958 0 13.5Z" fill="#3CBADE"/>
<path d="M13.5 6.75V16.4531" stroke="white" stroke-width="1.3" stroke-miterlimit="10" stroke-linecap="round"/>
<path d="M17.183 12.8883L13.5548 16.546C13.5477 16.5534 13.5392 16.5593 13.5298 16.5633C13.5204 16.5673 13.5102 16.5694 13.5 16.5694C13.4897 16.5694 13.4796 16.5673 13.4702 16.5633C13.4607 16.5593 13.4522 16.5534 13.4451 16.546L9.81702 12.8883" stroke="white" stroke-width="1.3" stroke-miterlimit="10" stroke-linecap="round"/>
<path d="M20.25 15.1875V17.7947C20.25 18.4459 19.9913 19.0704 19.5309 19.5309C19.0704 19.9913 18.4459 20.25 17.7947 20.25H9.20531C8.55412 20.25 7.9296 19.9913 7.46914 19.5309C7.00868 19.0704 6.75 18.4459 6.75 17.7947V15.1875" stroke="white" stroke-width="1.3" stroke-linecap="round" stroke-linejoin="round"/>
</svg>
