<svg width="85" height="74" viewBox="0 0 85 74" fill="none" xmlns="http://www.w3.org/2000/svg">
<path opacity="0.21" fill-rule="evenodd" clip-rule="evenodd" d="M0 37V51C0 63.7025 10.2975 74 23 74H42.3766H61.7533C74.4558 74 84.7533 63.7025 84.7533 51V37V23C84.7533 10.2975 74.4558 0 61.7533 0H42.3766H23C10.2975 0 0 10.2975 0 23V37Z" fill="#C12819"/>
<path d="M55.2708 20H29.0696C28.7862 20.001 28.5147 20.114 28.3143 20.3143C28.114 20.5147 28.001 20.7862 28 21.0696V52.9375C28.0013 53.2201 28.1146 53.4907 28.3151 53.6899C28.5156 53.8891 28.787 54.0006 29.0696 54H55.2708C55.4104 54.0002 55.5487 53.9728 55.6777 53.9195C55.8067 53.8662 55.9239 53.7879 56.0226 53.6892C56.1213 53.5905 56.1995 53.4733 56.2528 53.3443C56.3062 53.2153 56.3335 53.0771 56.3333 52.9375V21.0696C56.334 20.7869 56.2225 20.5156 56.0233 20.315C55.8241 20.1145 55.5535 20.0012 55.2708 20ZM40.75 48.3616H33.6667C33.3849 48.3616 33.1146 48.2497 32.9154 48.0504C32.7161 47.8512 32.6042 47.5809 32.6042 47.2991C32.6042 47.0173 32.7161 46.7471 32.9154 46.5478C33.1146 46.3485 33.3849 46.2366 33.6667 46.2366H40.75C42.1449 46.2583 42.1485 48.3393 40.75 48.3616ZM40.75 40.5699H33.6667C33.3849 40.5699 33.1146 40.458 32.9154 40.2587C32.7161 40.0595 32.6042 39.7892 32.6042 39.5074C32.6042 39.2257 32.7161 38.9554 32.9154 38.7561C33.1146 38.5569 33.3849 38.4449 33.6667 38.4449H40.75C42.1449 38.4666 42.1485 40.5476 40.75 40.5699ZM43.6117 32.0417C43.5909 33.4369 41.5083 33.4395 41.4867 32.0416V26.5379C41.488 25.6502 41.8416 24.7994 42.4698 24.1722C43.098 23.545 43.9494 23.1927 44.8371 23.1927C45.7248 23.1927 46.5762 23.545 47.2043 24.1722C47.8325 24.7994 48.1861 25.6502 48.1875 26.5379V32.0417C48.1646 33.4378 46.0853 33.4393 46.0625 32.0416V30.547H43.6117V32.0417ZM51.4175 46.3074L47.9326 49.7924C47.8352 49.8927 47.7184 49.9721 47.5893 50.0257C47.4602 50.0793 47.3215 50.106 47.1817 50.1041C47.0421 50.1046 46.9038 50.0773 46.7749 50.0238C46.646 49.9703 46.529 49.8916 46.4308 49.7924L44.9574 48.3191C43.9926 47.3195 45.4596 45.8391 46.4592 46.8174L47.1817 47.5399L49.9158 44.8058C50.9261 43.8405 52.3918 45.3105 51.4175 46.3074ZM51.4175 38.5158L47.9326 42.0008C47.8352 42.101 47.7184 42.1804 47.5893 42.234C47.4602 42.2876 47.3215 42.3143 47.1817 42.3125C47.0421 42.313 46.9038 42.2857 46.7749 42.2321C46.646 42.1786 46.529 42.1 46.4308 42.0008L44.9574 40.5274C43.9926 39.5279 45.4596 38.0474 46.4592 39.0258L47.1817 39.7482L49.9158 37.0141C50.9261 36.0489 52.3918 37.5188 51.4175 38.5158Z" fill="#D60000"/>
<path d="M46.0621 26.5377C46.0613 26.2132 45.9318 25.9024 45.7021 25.6732C45.4724 25.4441 45.1612 25.3154 44.8367 25.3154C44.5123 25.3154 44.2011 25.4441 43.9714 25.6732C43.7416 25.9024 43.6122 26.2132 43.6113 26.5377V28.4218H46.0621V26.5377Z" fill="#D60000"/>
</svg>
