<svg width="20" height="20" viewBox="0 0 20 20" fill="none" xmlns="http://www.w3.org/2000/svg">
<path fill-rule="evenodd" clip-rule="evenodd" d="M3.74008 4.54545H6.36364V6.36364H0.909091V0.901101H2.72727V2.96041C4.76098 0.82778 7.07875 0 10 0C15.5228 0 20 4.47715 20 10C20 15.5228 15.5228 20 10 20C4.47715 20 0 15.5228 0 10H1.81818C1.81818 14.5187 5.48131 18.1818 10 18.1818C14.5187 18.1818 18.1818 14.5187 18.1818 10C18.1818 5.48131 14.5187 1.81818 10 1.81818C7.41747 1.81818 5.49514 2.53761 3.74008 4.54545ZM10.9091 9.09091H14.5455V10.9091H9.09091V4.54545H10.9091V9.09091Z" fill="#3CBADE"/>
</svg>
