<svg width="108" height="94" viewBox="0 0 108 94" fill="none" xmlns="http://www.w3.org/2000/svg">
<path opacity="0.21" fill-rule="evenodd" clip-rule="evenodd" d="M0 47V71C0 83.7025 10.2974 94 23 94H53.8298H84.6596C97.3621 94 107.66 83.7026 107.66 71V47V23C107.66 10.2975 97.3621 0 84.6596 0H53.8298H23C10.2975 0 0 10.2974 0 23V47Z" fill="#C12819"/>
<path d="M79 33.2857V35C79 35.2273 78.9122 35.4454 78.7559 35.6061C78.5996 35.7669 78.3877 35.8572 78.1667 35.8572H75.6667V37.1429C75.6667 37.8529 75.107 38.4286 74.4167 38.4286H33.5833C32.893 38.4286 32.3333 37.8529 32.3333 37.1429V35.8572H29.8333C29.6123 35.8572 29.4004 35.7669 29.2441 35.6061C29.0878 35.4454 29 35.2273 29 35V33.2857C29 33.1162 29.0489 32.9504 29.1405 32.8094C29.2321 32.6684 29.3624 32.5586 29.5147 32.4937L53.6814 23.0652C53.8854 22.9783 54.1146 22.9783 54.3186 23.0652L78.4853 32.4937C78.6376 32.5586 78.7679 32.6684 78.8595 32.8094C78.9511 32.9504 79 33.1162 79 33.2857ZM76.5 65.8571H31.5C30.1193 65.8571 29 67.0084 29 68.4286V70.1429C29 70.3702 29.0878 70.5882 29.2441 70.749C29.4004 70.9097 29.6123 71 29.8333 71H78.1667C78.3877 71 78.5996 70.9097 78.7559 70.749C78.9122 70.5882 79 70.3702 79 70.1429V68.4286C79 67.0084 77.8807 65.8571 76.5 65.8571ZM37.3333 40.1429V60.7143H33.5833C32.893 60.7143 32.3333 61.29 32.3333 62V64.1429H75.6667V62C75.6667 61.29 75.107 60.7143 74.4167 60.7143H70.6667V40.1429H64V60.7143H57.3333V40.1429H50.6667V60.7143H44V40.1429H37.3333Z" fill="#C12819"/>
</svg>
