<svg width="85" height="74" viewBox="0 0 85 74" fill="none" xmlns="http://www.w3.org/2000/svg">
<path opacity="0.3" fill-rule="evenodd" clip-rule="evenodd" d="M0 37V51C0 63.7025 10.2975 74 23 74H42.3766H61.7533C74.4558 74 84.7533 63.7025 84.7533 51V37V23C84.7533 10.2975 74.4558 0 61.7533 0H42.3766H23C10.2975 0 0 10.2975 0 23V37Z" fill="#2B53C5"/>
<path d="M52.9504 43.6054C54.8835 41.5476 56.1757 38.9641 56.6673 36.1744C57.1589 33.3846 56.8284 30.5109 55.7166 27.9084C54.6048 25.3058 52.7605 23.0886 50.4116 21.5307C48.0627 19.9728 45.3122 19.1425 42.5 19.1425C39.6878 19.1425 36.9373 19.9728 34.5884 21.5307C32.2395 23.0886 30.3952 25.3058 29.2834 27.9084C28.1716 30.5109 27.8411 33.3846 28.3327 36.1744C28.8243 38.9641 30.1165 41.5476 32.0496 43.6054C33.1589 41.8219 34.6999 40.3518 36.5279 39.333C38.356 38.3143 40.411 37.7804 42.5 37.7816C44.589 37.7804 46.644 38.3143 48.4721 39.333C50.3001 40.3518 51.8411 41.8219 52.9504 43.6054ZM42.5 60L29.4185 46.8197C26.8312 44.2129 25.0693 40.8917 24.3555 37.2759C23.6417 33.6602 24.008 29.9124 25.4083 26.5065C26.8085 23.1006 29.1797 20.1895 32.222 18.1413C35.2643 16.0932 38.8411 15 42.5 15C46.1589 15 49.7357 16.0932 52.778 18.1413C55.8203 20.1895 58.1915 23.1006 59.5917 26.5065C60.992 29.9124 61.3583 33.6602 60.6445 37.2759C59.9307 40.8917 58.1688 44.2129 55.5816 46.8197L42.5 60ZM42.5 35.7105C40.8645 35.7105 39.296 35.0559 38.1395 33.8907C36.983 32.7255 36.3333 31.1452 36.3333 29.4973C36.3333 27.8495 36.983 26.2691 38.1395 25.1039C39.296 23.9387 40.8645 23.2841 42.5 23.2841C44.1355 23.2841 45.704 23.9387 46.8605 25.1039C48.017 26.2691 48.6667 27.8495 48.6667 29.4973C48.6667 31.1452 48.017 32.7255 46.8605 33.8907C45.704 35.0559 44.1355 35.7105 42.5 35.7105Z" fill="#2B53C5"/>
</svg>
