<svg width="10" height="11" viewBox="0 0 10 11" fill="none" xmlns="http://www.w3.org/2000/svg">
<path d="M8.88889 7.15H7.77778V9.9H1.11111V1.1H7.77778V3.85H8.88889V0.55C8.88889 0.404131 8.83036 0.264236 8.72617 0.161091C8.62198 0.0579462 8.48068 0 8.33333 0H0.555555C0.408213 0 0.266904 0.0579462 0.162718 0.161091C0.0585307 0.264236 -4.76837e-07 0.404131 -4.76837e-07 0.55V10.45C-4.76837e-07 10.5959 0.0585307 10.7358 0.162718 10.8389C0.266904 10.9421 0.408213 11 0.555555 11H8.33333C8.48068 11 8.62198 10.9421 8.72617 10.8389C8.83036 10.7358 8.88889 10.5959 8.88889 10.45V7.15ZM5.55556 4.95V3.3L2.77778 5.5L5.55556 7.7V6.05H10V4.95H5.55556Z" fill="white"/>
</svg>
