<svg width="17" height="23" viewBox="0 0 17 23" fill="none" xmlns="http://www.w3.org/2000/svg">
<path d="M2.26667 0V1.13333H0V22.6667H17V1.13333H14.7333V0H13.6V1.13333H12.4667V0H11.3333V1.13333H10.2V0H9.06667V1.13333H7.93333V0H6.8V1.13333H5.66667V0H4.53333V1.13333H3.4V0H2.26667ZM1.13333 2.26667H2.26667V3.4H3.4V2.26667H4.53333V3.4H5.66667V2.26667H6.8V3.4H7.93333V2.26667H9.06667V3.4H10.2V2.26667H11.3333V3.4H12.4667V2.26667H13.6V3.4H14.7333V2.26667H15.8667V21.5333H1.13333V2.26667ZM2.26667 10.2V11.3333H14.7333V10.2H2.26667ZM2.26667 12.4667V13.6H14.7333V12.4667H2.26667ZM2.26667 14.7333V15.8667H14.7333V14.7333H2.26667ZM2.26667 17V18.1333H14.7333V17H2.26667Z" fill="#3CBADE"/>
</svg>
