<svg width="30" height="30" viewBox="0 0 30 30" fill="none" xmlns="http://www.w3.org/2000/svg">
<circle opacity="0.2" cx="15" cy="15" r="15" fill="#F51400"/>
<path d="M19.0038 9.00244L20.8968 10.9014L20.8895 10.9084L19.0199 10.9098L19.0024 9.00385L19.0038 9.00244Z" fill="#F1F1F1"/>
<path d="M13.9201 11.9993C13.9201 12.3596 13.7189 12.5298 13.41 12.5273C13.3677 12.5273 13.3205 12.5273 13.2915 12.5207V11.5341C13.3205 11.5275 13.3698 11.5205 13.4459 11.5205C13.7388 11.5205 13.9222 11.6862 13.9201 11.9993Z" fill="#F1F1F1"/>
<path d="M12.3959 11.7378C12.3959 11.8923 12.284 11.9842 12.1031 11.9842C12.0538 11.9842 12.0178 11.9817 11.9888 11.9751V11.5299C12.0136 11.5232 12.0604 11.5166 12.1296 11.5166C12.2998 11.5166 12.3959 11.5991 12.3959 11.7378Z" fill="#F1F1F1"/>
<path d="M11.258 10.3286H17.1287V13.7184H11.258H11.2437H10V10.3286H11.2437H11.258Z" fill="#F1F1F1"/>
<path d="M16.2427 15.4674C16.2469 15.8193 16.0218 16.506 16.0218 16.506C15.9442 16.4242 15.7891 15.9867 15.7891 15.582C15.7891 15.1773 15.9198 15.0669 16.0218 15.0669C16.1242 15.0669 16.2384 15.1158 16.2427 15.4674Z" fill="#DC1D00"/>
<path d="M18.6936 18.5361C18.6936 19.0009 17.8514 18.8115 17.3335 18.3184C17.3335 18.3184 18.6936 18.0717 18.6936 18.5361Z" fill="#DC1D00"/>
<path d="M13.8049 20.0688C13.388 19.8193 14.6799 19.0508 14.913 19.0264C14.913 19.0264 14.2414 20.3298 13.8049 20.0688Z" fill="#DC1D00"/>
<path d="M16.2175 17.271C16.4545 17.7124 16.9248 18.2317 16.9248 18.2317C16.9248 18.2317 16.7448 18.252 16.3266 18.3543C15.9082 18.4567 15.6982 18.563 15.6982 18.563C15.6982 18.563 15.6982 18.563 15.8698 18.1786C16.0417 17.7941 16.2175 17.271 16.2175 17.271Z" fill="#DC1D00"/>
<path d="M20.9035 10.9077V22H11.2588V13.7177H17.1295V10.328H11.2588V9H19.0022L19.0036 9.00173L19.0022 9.00311L19.0197 10.9091L20.8892 10.9077L20.8965 10.9007L20.9035 10.9077Z" fill="#DC1D00"/>
<path d="M14.9146 19.0263C14.6815 19.0508 13.3896 19.8192 13.8065 20.0687C14.2429 20.3298 14.9146 19.0263 14.9146 19.0263ZM17.3334 18.3204C17.8513 18.8135 18.6935 19.0029 18.6935 18.5381C18.6935 18.0737 17.3334 18.3204 17.3334 18.3204ZM16.926 18.233C16.926 18.233 16.4556 17.7137 16.2187 17.2723C16.2187 17.2723 16.0429 17.7955 15.871 18.1799C15.6994 18.5643 15.6994 18.5643 15.6994 18.5643C15.6994 18.5643 15.9094 18.458 16.3277 18.3556C16.746 18.2533 16.926 18.233 16.926 18.233ZM16.0223 16.5077C16.0223 16.5077 16.2473 15.821 16.2432 15.4691C16.2389 15.1176 16.1247 15.0686 16.0223 15.0686C15.9203 15.0686 15.7896 15.179 15.7896 15.5837C15.7896 15.9884 15.9447 16.426 16.0223 16.5077ZM16.3047 17.0392C16.5336 17.5341 17.1633 18.1715 17.1633 18.1715C17.1633 18.1715 17.3674 18.1184 18.2095 18.0981C19.052 18.0779 19.0888 18.5517 19.0926 18.5926C19.0968 18.6339 19.1296 19.0099 18.459 19.0343C17.7888 19.0588 17.0934 18.3599 17.0934 18.3599C17.0934 18.3599 16.8075 18.4049 16.5706 18.4619C16.3337 18.5192 15.5729 18.7279 15.5729 18.7279C15.5729 18.7279 15.3479 19.1367 14.8492 19.7906C14.3502 20.4448 13.7915 20.3959 13.6321 20.1791C13.4469 19.9275 13.5898 19.6763 13.9414 19.3492C14.2929 19.0221 15.104 18.7509 15.104 18.7509C15.104 18.7509 15.2675 18.4567 15.5072 17.8951C15.7469 17.3335 15.9283 16.7695 15.9283 16.7695C15.9283 16.7695 15.691 16.2306 15.6449 15.7721C15.5932 15.2608 15.6505 14.9173 16.0429 14.9131C16.4354 14.9089 16.558 15.2035 16.5703 15.7144C16.5825 16.2257 16.3047 17.0392 16.3047 17.0392Z" fill="white"/>
<path d="M15.4037 11.558V11.2695H14.5063V12.7759H14.8268V12.1669H15.3717V11.9105H14.8268V11.558H15.4037Z" fill="#A51600"/>
<path d="M14.0282 11.4189C13.8828 11.3092 13.6902 11.2578 13.4036 11.2578C13.2314 11.2578 13.0637 11.269 12.9355 11.2893V12.7703C13.0317 12.7815 13.1531 12.7926 13.3299 12.7926C13.6252 12.7926 13.8706 12.7301 14.0292 12.598C14.1746 12.475 14.2815 12.2757 14.2815 11.9871C14.2815 11.7212 14.1851 11.5353 14.0282 11.4189ZM13.3926 12.5264C13.3503 12.5264 13.3201 12.5264 13.256 12.5197V11.5332C13.3201 11.5265 13.3524 11.5196 13.4286 11.5196C13.7215 11.5196 13.9049 11.6852 13.9028 11.9983C13.9028 12.3586 13.7015 12.5288 13.3926 12.5264Z" fill="#A51600"/>
<path d="M12.5718 11.3787C12.4711 11.298 12.3071 11.2578 12.0967 11.2578C11.8887 11.2578 11.7177 11.2714 11.6216 11.2893V12.775H11.9741V12.2377C12.0062 12.2422 12.0526 12.2447 12.0974 12.2447C12.2986 12.2447 12.4743 12.1954 12.5907 12.0857C12.6802 12.0008 12.7311 11.8753 12.7311 11.7278C12.7311 11.58 12.6678 11.4549 12.5718 11.3787ZM12.0952 11.9829C12.046 11.9829 12.0062 11.9805 11.9741 11.9739V11.5286C12.0062 11.522 12.0526 11.5154 12.1218 11.5154C12.292 11.5154 12.3881 11.5978 12.3881 11.7366C12.3881 11.891 12.2762 11.9829 12.0952 11.9829Z" fill="#A51600"/>
</svg>
