<svg width="85" height="74" viewBox="0 0 85 74" fill="none" xmlns="http://www.w3.org/2000/svg">
<path opacity="0.21" fill-rule="evenodd" clip-rule="evenodd" d="M0 37V51C0 63.7025 10.2975 74 23 74H42.3766H61.7533C74.4558 74 84.7533 63.7025 84.7533 51V37V23C84.7533 10.2975 74.4558 0 61.7533 0H42.3766H23C10.2975 0 0 10.2975 0 23V37Z" fill="#D8B93E"/>
<path d="M68.9968 53.329H63.6974V37.431H64.5806C65.0664 37.431 65.4639 37.0335 65.4639 36.5477V31.2484C65.4639 30.7626 65.0664 30.3652 64.5806 30.3652H60.1645V25.0658H68.1135C68.4933 25.0658 68.829 24.8185 68.9526 24.4652C69.0763 24.1031 68.9526 23.7056 68.6435 23.476L66.0556 21.5329L68.6435 19.5898C68.9438 19.3602 69.0763 18.9627 68.9526 18.6006C68.829 18.2385 68.4933 18 68.1135 18H59.2813C58.7955 18 58.3981 18.3975 58.3981 18.8832V30.3652H53.4608L43.1183 20.0226C42.7738 19.6781 42.2174 19.6781 41.8729 20.0226L31.5303 30.3652H26.5931V18.8832C26.5931 18.3975 26.1956 18 25.7099 18H16.8864C16.5067 18 16.171 18.2473 16.0474 18.6006C15.9237 18.9627 16.0474 19.3602 16.3565 19.5898L18.9444 21.5329L16.3565 23.476C16.0562 23.7056 15.9237 24.1031 16.0474 24.4652C16.171 24.8273 16.5067 25.0658 16.8864 25.0658H24.8355V30.3652H20.4194C19.9336 30.3652 19.5361 30.7626 19.5361 31.2484V36.5477C19.5361 37.0335 19.9336 37.431 20.4194 37.431H21.3026V53.329H16.0032V55.0955H68.9968V53.329ZM31.0181 35.6645H21.3026V32.1316H31.0181V35.6645ZM45.1497 53.329H43.3832V48.0297H45.1497V53.329ZM52.2155 53.329H46.9161V47.1465C46.9161 46.6607 46.5187 46.2632 46.0329 46.2632H38.9671C38.4813 46.2632 38.0839 46.6607 38.0839 47.1465V53.329H32.7845V31.6105L42.5 21.895L52.2155 31.6105V53.329ZM53.9819 32.1316H63.6974V35.6645H53.9819V32.1316Z" fill="#D8B93E"/>
<path d="M37.2012 33.0147C37.2012 35.9382 39.577 38.314 42.5005 38.314C45.424 38.314 47.7999 35.9382 47.7999 33.0147C47.7999 30.0912 45.424 27.7153 42.5005 27.7153C39.577 27.7153 37.2012 30.0912 37.2012 33.0147ZM41.6173 36.4239C40.0982 36.0265 38.9676 34.6575 38.9676 33.0147C38.9676 31.3719 40.0982 30.0029 41.6173 29.6054V36.4239Z" fill="#D8B93E"/>
</svg>
