<svg width="28" height="28" viewBox="0 0 28 28" fill="none" xmlns="http://www.w3.org/2000/svg">
<path d="M23.1 0H4.9C2.1938 0 0 2.1938 0 4.9V23.1C0 25.8062 2.1938 28 4.9 28H23.1C25.8062 28 28 25.8062 28 23.1V4.9C28 2.1938 25.8062 0 23.1 0Z" fill="url(#paint0_linear_3_236)"/>
<path d="M11.9962 9.35373L12.8712 11.7294C12.8924 11.7825 12.8995 11.8403 12.8919 11.897C12.8842 11.9537 12.862 12.0075 12.8275 12.0531C12.6397 12.3254 12.4226 12.5763 12.18 12.8012C12.1095 12.8566 12.0629 12.937 12.0498 13.0257C12.0368 13.1144 12.0583 13.2048 12.11 13.2781C12.6481 14 14.0437 15.75 15.8594 16.3756C15.9293 16.3987 16.0048 16.3989 16.0749 16.376C16.1449 16.3532 16.2058 16.3086 16.2487 16.2487L16.975 15.2819C17.0246 15.2165 17.0955 15.1706 17.1755 15.1522C17.2555 15.1338 17.3393 15.1441 17.4125 15.1812L19.6875 16.3187C19.7666 16.356 19.8286 16.4219 19.8611 16.503C19.8936 16.5842 19.8941 16.6747 19.8625 16.7562C19.6131 17.465 18.83 19.1931 17.1544 18.9131C14.9632 18.5769 12.9702 17.4521 11.55 15.75C10.1762 14.035 7.46375 9.62498 11.6331 9.12623C11.7103 9.11856 11.7878 9.13674 11.8536 9.17791C11.9193 9.21909 11.9695 9.28093 11.9962 9.35373Z" fill="white"/>
<path d="M14.7 23.975C12.8697 23.9776 11.0699 23.5058 9.47625 22.6056L4.22625 23.9531L6.15562 19.6175C4.98936 17.9772 4.36662 16.0126 4.375 14C4.375 8.50065 9.00812 4.02502 14.7 4.02502C20.3919 4.02502 25.025 8.50065 25.025 14C25.025 19.4994 20.3919 23.975 14.7 23.975ZM9.75188 20.7244L10.0712 20.9213C11.4624 21.7799 13.0652 22.2344 14.7 22.2338C19.4294 22.2338 23.275 18.5456 23.275 14.0088C23.275 9.4719 19.4294 5.77502 14.7 5.77502C9.97062 5.77502 6.125 9.46315 6.125 14C6.12695 15.8047 6.74425 17.5548 7.875 18.9613L8.20312 19.3769L6.62375 22.0544L9.75188 20.7244Z" fill="white"/>
<defs>
<linearGradient id="paint0_linear_3_236" x1="14" y1="1.75" x2="14" y2="28.3544" gradientUnits="userSpaceOnUse">
<stop stop-color="#1DF47C"/>
<stop offset="0.31" stop-color="#12DF63"/>
<stop offset="0.75" stop-color="#05C443"/>
<stop offset="1" stop-color="#00BA37"/>
</linearGradient>
</defs>
</svg>
