<svg xmlns="http://www.w3.org/2000/svg" width="243.311" height="210.724" viewBox="0 0 243.311 210.724">
  <g id="about_dots" opacity="0.67">
    <path id="Path_51" data-name="Path 51" d="M19.047,7.5a3.4,3.4,0,1,1,2.39-.994A3.392,3.392,0,0,1,19.047,7.5Z" transform="translate(18.361 0.872)" fill="#1db174"/>
    <path id="Path_52" data-name="Path 52" d="M19.047,20.854a3.382,3.382,0,1,1,2.389-.984A3.393,3.393,0,0,1,19.047,20.854Z" transform="translate(18.361 16.529)" fill="#1db174"/>
    <path id="Path_53" data-name="Path 53" d="M19.047,34.216a3.392,3.392,0,1,1,1.3-.257A3.393,3.393,0,0,1,19.047,34.216Z" transform="translate(18.361 32.195)" fill="#1db174"/>
    <path id="Path_54" data-name="Path 54" d="M19.047,47.578a3.4,3.4,0,1,1,2.367-.971A3.392,3.392,0,0,1,19.047,47.578Z" transform="translate(18.362 47.86)" fill="#1db174"/>
    <path id="Path_55" data-name="Path 55" d="M19.047,60.568a3.382,3.382,0,1,1,2.394-.989A3.393,3.393,0,0,1,19.047,60.568Z" transform="translate(18.361 63.09)" fill="#1db174"/>
    <path id="Path_56" data-name="Path 56" d="M19.047,73.93a3.4,3.4,0,1,1,2.39-.994A3.393,3.393,0,0,1,19.047,73.93Z" transform="translate(18.361 78.756)" fill="#1db174"/>
    <path id="Path_57" data-name="Path 57" d="M19.047,87.292a3.4,3.4,0,1,1,2.39-.994A3.391,3.391,0,0,1,19.047,87.292Z" transform="translate(18.361 94.421)" fill="#1db174"/>
    <path id="Path_58" data-name="Path 58" d="M19.047,100.646a3.382,3.382,0,1,1,2.394-.989A3.391,3.391,0,0,1,19.047,100.646Z" transform="translate(18.361 110.078)" fill="#1db174"/>
    <path id="Path_59" data-name="Path 59" d="M3.386,7.5a3.4,3.4,0,1,1,2.39-.994A3.392,3.392,0,0,1,3.386,7.5Z" transform="translate(0 0.872)" fill="#1db174"/>
    <path id="Path_60" data-name="Path 60" d="M3.386,20.854a3.382,3.382,0,1,1,2.389-.984A3.393,3.393,0,0,1,3.386,20.854Z" transform="translate(0 16.529)" fill="#1db174"/>
    <path id="Path_61" data-name="Path 61" d="M3.386,34.216a3.391,3.391,0,1,1,1.3-.257A3.393,3.393,0,0,1,3.386,34.216Z" transform="translate(0 32.195)" fill="#1db174"/>
    <path id="Path_62" data-name="Path 62" d="M3.386,47.578a3.4,3.4,0,1,1,2.367-.971A3.393,3.393,0,0,1,3.386,47.578Z" transform="translate(0 47.86)" fill="#1db174"/>
    <path id="Path_63" data-name="Path 63" d="M3.386,60.568a3.382,3.382,0,1,1,2.394-.989A3.393,3.393,0,0,1,3.386,60.568Z" transform="translate(0 63.09)" fill="#1db174"/>
    <path id="Path_64" data-name="Path 64" d="M3.386,73.93a3.4,3.4,0,1,1,2.39-.994A3.393,3.393,0,0,1,3.386,73.93Z" transform="translate(0 78.756)" fill="#1db174"/>
    <path id="Path_65" data-name="Path 65" d="M3.386,87.292a3.4,3.4,0,1,1,2.39-.994A3.391,3.391,0,0,1,3.386,87.292Z" transform="translate(0 94.421)" fill="#1db174"/>
    <path id="Path_66" data-name="Path 66" d="M3.386,100.646a3.382,3.382,0,1,1,2.394-.989A3.391,3.391,0,0,1,3.386,100.646Z" transform="translate(0 110.078)" fill="#1db174"/>
    <path id="Path_67" data-name="Path 67" d="M50.37,6.756a3.4,3.4,0,1,1,2.389-.994A3.392,3.392,0,0,1,50.37,6.756Z" transform="translate(55.084 0)" fill="#1db174"/>
    <path id="Path_68" data-name="Path 68" d="M50.37,20.11a3.382,3.382,0,1,1,2.389-.984A3.392,3.392,0,0,1,50.37,20.11Z" transform="translate(55.084 15.657)" fill="#1db174"/>
    <path id="Path_69" data-name="Path 69" d="M50.37,33.472a3.389,3.389,0,1,1,1.3-.257A3.393,3.393,0,0,1,50.37,33.472Z" transform="translate(55.084 31.323)" fill="#1db174"/>
    <path id="Path_70" data-name="Path 70" d="M50.369,46.834a3.4,3.4,0,1,1,2.367-.971A3.393,3.393,0,0,1,50.369,46.834Z" transform="translate(55.084 46.988)" fill="#1db174"/>
    <path id="Path_71" data-name="Path 71" d="M50.37,59.824a3.382,3.382,0,1,1,2.394-.99A3.391,3.391,0,0,1,50.37,59.824Z" transform="translate(55.084 62.218)" fill="#1db174"/>
    <path id="Path_72" data-name="Path 72" d="M50.37,73.186a3.4,3.4,0,1,1,2.389-.994A3.393,3.393,0,0,1,50.37,73.186Z" transform="translate(55.084 77.883)" fill="#1db174"/>
    <path id="Path_73" data-name="Path 73" d="M50.37,86.548a3.4,3.4,0,1,1,2.389-.994A3.391,3.391,0,0,1,50.37,86.548Z" transform="translate(55.084 93.549)" fill="#1db174"/>
    <path id="Path_74" data-name="Path 74" d="M50.37,99.9a3.382,3.382,0,1,1,2.394-.989A3.393,3.393,0,0,1,50.37,99.9Z" transform="translate(55.084 109.206)" fill="#1db174"/>
    <path id="Path_75" data-name="Path 75" d="M34.708,6.756a3.4,3.4,0,1,1,2.39-.994A3.392,3.392,0,0,1,34.708,6.756Z" transform="translate(36.723 0)" fill="#1db174"/>
    <path id="Path_76" data-name="Path 76" d="M34.708,20.11a3.382,3.382,0,1,1,2.389-.984A3.392,3.392,0,0,1,34.708,20.11Z" transform="translate(36.723 15.657)" fill="#1db174"/>
    <path id="Path_77" data-name="Path 77" d="M34.708,33.472a3.388,3.388,0,1,1,1.3-.257A3.393,3.393,0,0,1,34.708,33.472Z" transform="translate(36.723 31.323)" fill="#1db174"/>
    <path id="Path_78" data-name="Path 78" d="M34.708,46.834a3.4,3.4,0,1,1,2.367-.971A3.394,3.394,0,0,1,34.708,46.834Z" transform="translate(36.723 46.988)" fill="#1db174"/>
    <path id="Path_79" data-name="Path 79" d="M34.708,59.824a3.382,3.382,0,1,1,2.394-.99A3.392,3.392,0,0,1,34.708,59.824Z" transform="translate(36.723 62.218)" fill="#1db174"/>
    <path id="Path_80" data-name="Path 80" d="M34.708,73.186a3.4,3.4,0,1,1,2.39-.994A3.393,3.393,0,0,1,34.708,73.186Z" transform="translate(36.723 77.883)" fill="#1db174"/>
    <path id="Path_81" data-name="Path 81" d="M34.708,86.548a3.4,3.4,0,1,1,2.39-.994A3.392,3.392,0,0,1,34.708,86.548Z" transform="translate(36.723 93.549)" fill="#1db174"/>
    <path id="Path_82" data-name="Path 82" d="M34.708,99.9a3.382,3.382,0,1,1,2.394-.989A3.393,3.393,0,0,1,34.708,99.9Z" transform="translate(36.723 109.206)" fill="#1db174"/>
    <path id="Path_83" data-name="Path 83" d="M80.946,7.5a3.4,3.4,0,1,1,2.39-.994A3.391,3.391,0,0,1,80.946,7.5Z" transform="translate(90.932 0.872)" fill="#1db174"/>
    <path id="Path_84" data-name="Path 84" d="M80.946,20.854a3.382,3.382,0,1,1,2.389-.984A3.393,3.393,0,0,1,80.946,20.854Z" transform="translate(90.932 16.529)" fill="#1db174"/>
    <path id="Path_85" data-name="Path 85" d="M80.946,34.216a3.392,3.392,0,1,1,1.3-.257A3.392,3.392,0,0,1,80.946,34.216Z" transform="translate(90.932 32.195)" fill="#1db174"/>
    <path id="Path_86" data-name="Path 86" d="M80.946,47.578a3.4,3.4,0,1,1,2.367-.971A3.394,3.394,0,0,1,80.946,47.578Z" transform="translate(90.933 47.86)" fill="#1db174"/>
    <path id="Path_87" data-name="Path 87" d="M80.946,60.568a3.382,3.382,0,1,1,2.394-.989A3.392,3.392,0,0,1,80.946,60.568Z" transform="translate(90.932 63.09)" fill="#1db174"/>
    <path id="Path_88" data-name="Path 88" d="M80.946,73.93a3.4,3.4,0,1,1,2.39-.994A3.392,3.392,0,0,1,80.946,73.93Z" transform="translate(90.932 78.756)" fill="#1db174"/>
    <path id="Path_89" data-name="Path 89" d="M80.946,87.292a3.4,3.4,0,1,1,2.39-.994A3.391,3.391,0,0,1,80.946,87.292Z" transform="translate(90.932 94.421)" fill="#1db174"/>
    <path id="Path_90" data-name="Path 90" d="M80.946,100.646a3.382,3.382,0,1,1,2.394-.989A3.391,3.391,0,0,1,80.946,100.646Z" transform="translate(90.932 110.078)" fill="#1db174"/>
    <path id="Path_91" data-name="Path 91" d="M65.285,7.5a3.4,3.4,0,1,1,2.389-.994A3.392,3.392,0,0,1,65.285,7.5Z" transform="translate(72.571 0.872)" fill="#1db174"/>
    <path id="Path_92" data-name="Path 92" d="M65.285,20.854a3.382,3.382,0,1,1,2.389-.984A3.394,3.394,0,0,1,65.285,20.854Z" transform="translate(72.571 16.529)" fill="#1db174"/>
    <path id="Path_93" data-name="Path 93" d="M65.285,34.216a3.392,3.392,0,1,1,1.3-.257A3.393,3.393,0,0,1,65.285,34.216Z" transform="translate(72.571 32.195)" fill="#1db174"/>
    <path id="Path_94" data-name="Path 94" d="M65.285,47.578a3.4,3.4,0,1,1,2.367-.971A3.393,3.393,0,0,1,65.285,47.578Z" transform="translate(72.571 47.86)" fill="#1db174"/>
    <path id="Path_95" data-name="Path 95" d="M65.285,60.568a3.382,3.382,0,1,1,2.394-.989A3.393,3.393,0,0,1,65.285,60.568Z" transform="translate(72.571 63.09)" fill="#1db174"/>
    <path id="Path_96" data-name="Path 96" d="M65.285,73.93a3.4,3.4,0,1,1,2.389-.994A3.393,3.393,0,0,1,65.285,73.93Z" transform="translate(72.571 78.756)" fill="#1db174"/>
    <path id="Path_97" data-name="Path 97" d="M65.285,87.292a3.4,3.4,0,1,1,2.389-.994A3.392,3.392,0,0,1,65.285,87.292Z" transform="translate(72.571 94.421)" fill="#1db174"/>
    <path id="Path_98" data-name="Path 98" d="M65.285,100.646a3.382,3.382,0,1,1,2.394-.989A3.392,3.392,0,0,1,65.285,100.646Z" transform="translate(72.571 110.078)" fill="#1db174"/>
    <path id="Path_99" data-name="Path 99" d="M112.269,6.756a3.377,3.377,0,0,1-.66-6.691,3.384,3.384,0,0,1,4.047,3.313,3.4,3.4,0,0,1-3.387,3.378Z" transform="translate(127.655 0)" fill="#1db174"/>
    <path id="Path_100" data-name="Path 100" d="M112.268,20.11a3.381,3.381,0,1,1,2.39-.984A3.394,3.394,0,0,1,112.268,20.11Z" transform="translate(127.655 15.657)" fill="#1db174"/>
    <path id="Path_101" data-name="Path 101" d="M112.269,33.472a3.382,3.382,0,1,1,3.128-2.085,3.357,3.357,0,0,1-.734,1.1,3.382,3.382,0,0,1-2.394.989Z" transform="translate(127.655 31.323)" fill="#1db174"/>
    <path id="Path_102" data-name="Path 102" d="M112.268,46.834a3.4,3.4,0,1,1,2.368-.971A3.4,3.4,0,0,1,112.268,46.834Z" transform="translate(127.655 46.988)" fill="#1db174"/>
    <path id="Path_103" data-name="Path 103" d="M112.269,59.824a3.384,3.384,0,1,1,2.394-.99A3.392,3.392,0,0,1,112.269,59.824Z" transform="translate(127.655 62.218)" fill="#1db174"/>
    <path id="Path_104" data-name="Path 104" d="M112.269,73.186a3.4,3.4,0,1,1,2.39-.994A3.393,3.393,0,0,1,112.269,73.186Z" transform="translate(127.655 77.883)" fill="#1db174"/>
    <path id="Path_105" data-name="Path 105" d="M112.269,86.548a3.4,3.4,0,1,1,2.39-.994A3.391,3.391,0,0,1,112.269,86.548Z" transform="translate(127.655 93.549)" fill="#1db174"/>
    <path id="Path_106" data-name="Path 106" d="M112.269,99.9a3.384,3.384,0,1,1,2.394-.989A3.393,3.393,0,0,1,112.269,99.9Z" transform="translate(127.655 109.206)" fill="#1db174"/>
    <path id="Path_107" data-name="Path 107" d="M96.607,6.756A3.4,3.4,0,1,1,99,5.762,3.392,3.392,0,0,1,96.607,6.756Z" transform="translate(109.294 0)" fill="#1db174"/>
    <path id="Path_108" data-name="Path 108" d="M96.607,20.11A3.382,3.382,0,1,1,99,19.127,3.391,3.391,0,0,1,96.607,20.11Z" transform="translate(109.294 15.657)" fill="#1db174"/>
    <path id="Path_109" data-name="Path 109" d="M96.607,33.472a3.388,3.388,0,1,1,1.3-.257A3.393,3.393,0,0,1,96.607,33.472Z" transform="translate(109.294 31.323)" fill="#1db174"/>
    <path id="Path_110" data-name="Path 110" d="M96.607,46.834a3.4,3.4,0,1,1,2.367-.971A3.393,3.393,0,0,1,96.607,46.834Z" transform="translate(109.294 46.988)" fill="#1db174"/>
    <path id="Path_111" data-name="Path 111" d="M96.607,59.824A3.382,3.382,0,1,1,99,58.834,3.392,3.392,0,0,1,96.607,59.824Z" transform="translate(109.294 62.218)" fill="#1db174"/>
    <path id="Path_112" data-name="Path 112" d="M96.607,73.186A3.4,3.4,0,1,1,99,72.192,3.393,3.393,0,0,1,96.607,73.186Z" transform="translate(109.294 77.883)" fill="#1db174"/>
    <path id="Path_113" data-name="Path 113" d="M96.607,86.548A3.4,3.4,0,1,1,99,85.554,3.392,3.392,0,0,1,96.607,86.548Z" transform="translate(109.294 93.549)" fill="#1db174"/>
    <path id="Path_114" data-name="Path 114" d="M96.607,99.9A3.382,3.382,0,1,1,99,98.913,3.393,3.393,0,0,1,96.607,99.9Z" transform="translate(109.294 109.206)" fill="#1db174"/>
  </g>
</svg>
